<mxfile host="app.diagrams.net" agent="Mozilla/5.0 (Windows NT 10.0; Win64; x64) AppleWebKit/537.36 (KHTML, like Gecko) Chrome/128.0.0.0 Safari/537.36" version="24.7.8">
  <diagram name="Página-1" id="J7hREB2nm6JP-Wou6bRG">
    <mxGraphModel dx="1235" dy="614" grid="1" gridSize="10" guides="1" tooltips="1" connect="1" arrows="1" fold="1" page="1" pageScale="1" pageWidth="827" pageHeight="1169" math="0" shadow="0">
      <root>
        <mxCell id="0" />
        <mxCell id="1" parent="0" />
        <mxCell id="Aa0I2NGFZkAZ0cEA8cgW-6" value="&lt;font style=&quot;font-size: 15px;&quot;&gt;Cliente&lt;/font&gt;" style="shape=umlActor;verticalLabelPosition=bottom;verticalAlign=top;html=1;outlineConnect=0;" parent="1" vertex="1">
          <mxGeometry x="60" y="200" width="73.13" height="130" as="geometry" />
        </mxCell>
        <mxCell id="Aa0I2NGFZkAZ0cEA8cgW-7" value="Logar no Sistema" style="ellipse;whiteSpace=wrap;html=1;" parent="1" vertex="1">
          <mxGeometry x="414" y="120" width="120" height="80" as="geometry" />
        </mxCell>
        <mxCell id="Aa0I2NGFZkAZ0cEA8cgW-8" value="&lt;font style=&quot;font-size: 15px;&quot;&gt;Entregador&lt;/font&gt;" style="shape=umlActor;verticalLabelPosition=bottom;verticalAlign=top;html=1;outlineConnect=0;" parent="1" vertex="1">
          <mxGeometry x="730" y="600" width="70" height="140" as="geometry" />
        </mxCell>
        <mxCell id="Aa0I2NGFZkAZ0cEA8cgW-9" value="&lt;font style=&quot;font-size: 15px;&quot;&gt;Restaurante&lt;/font&gt;&lt;div style=&quot;font-size: 15px;&quot;&gt;&lt;br&gt;&lt;/div&gt;" style="shape=umlActor;verticalLabelPosition=bottom;verticalAlign=top;html=1;outlineConnect=0;" parent="1" vertex="1">
          <mxGeometry x="730" y="200" width="70" height="140" as="geometry" />
        </mxCell>
        <mxCell id="AqXCSbFWqrP8IzqeoJTF-9" style="edgeStyle=orthogonalEdgeStyle;rounded=0;orthogonalLoop=1;jettySize=auto;html=1;entryX=0;entryY=0.5;entryDx=0;entryDy=0;curved=1;dashed=1;" edge="1" parent="1" source="Aa0I2NGFZkAZ0cEA8cgW-16" target="Aa0I2NGFZkAZ0cEA8cgW-26">
          <mxGeometry relative="1" as="geometry" />
        </mxCell>
        <mxCell id="Aa0I2NGFZkAZ0cEA8cgW-16" value="Selecionar Restaurante&amp;nbsp;" style="ellipse;whiteSpace=wrap;html=1;" parent="1" vertex="1">
          <mxGeometry x="294" y="200" width="120" height="80" as="geometry" />
        </mxCell>
        <mxCell id="AqXCSbFWqrP8IzqeoJTF-7" style="edgeStyle=orthogonalEdgeStyle;rounded=0;orthogonalLoop=1;jettySize=auto;html=1;entryX=0.5;entryY=1;entryDx=0;entryDy=0;curved=1;dashed=1;" edge="1" parent="1" source="Aa0I2NGFZkAZ0cEA8cgW-17" target="Aa0I2NGFZkAZ0cEA8cgW-16">
          <mxGeometry relative="1" as="geometry" />
        </mxCell>
        <mxCell id="Aa0I2NGFZkAZ0cEA8cgW-17" value="Ver Cardapio" style="ellipse;whiteSpace=wrap;html=1;" parent="1" vertex="1">
          <mxGeometry x="414" y="280" width="120" height="80" as="geometry" />
        </mxCell>
        <mxCell id="AqXCSbFWqrP8IzqeoJTF-5" style="edgeStyle=orthogonalEdgeStyle;rounded=0;orthogonalLoop=1;jettySize=auto;html=1;exitX=0.5;exitY=0;exitDx=0;exitDy=0;entryX=0.5;entryY=1;entryDx=0;entryDy=0;curved=1;dashed=1;" edge="1" parent="1" source="Aa0I2NGFZkAZ0cEA8cgW-18" target="Aa0I2NGFZkAZ0cEA8cgW-17">
          <mxGeometry relative="1" as="geometry" />
        </mxCell>
        <mxCell id="AqXCSbFWqrP8IzqeoJTF-14" style="edgeStyle=orthogonalEdgeStyle;rounded=0;orthogonalLoop=1;jettySize=auto;html=1;entryX=0.5;entryY=1;entryDx=0;entryDy=0;curved=1;dashed=1;" edge="1" parent="1" source="Aa0I2NGFZkAZ0cEA8cgW-18" target="Aa0I2NGFZkAZ0cEA8cgW-19">
          <mxGeometry relative="1" as="geometry">
            <Array as="points">
              <mxPoint x="477" y="400" />
              <mxPoint x="477" y="440" />
            </Array>
          </mxGeometry>
        </mxCell>
        <mxCell id="Aa0I2NGFZkAZ0cEA8cgW-18" value="Realizar Pedido" style="ellipse;whiteSpace=wrap;html=1;" parent="1" vertex="1">
          <mxGeometry x="294" y="360" width="120" height="80" as="geometry" />
        </mxCell>
        <mxCell id="Aa0I2NGFZkAZ0cEA8cgW-19" value="Cancelar Pedido&amp;nbsp;" style="ellipse;whiteSpace=wrap;html=1;" parent="1" vertex="1">
          <mxGeometry x="540" y="360" width="120" height="80" as="geometry" />
        </mxCell>
        <mxCell id="AqXCSbFWqrP8IzqeoJTF-16" style="edgeStyle=orthogonalEdgeStyle;rounded=0;orthogonalLoop=1;jettySize=auto;html=1;exitX=0;exitY=0.5;exitDx=0;exitDy=0;entryX=0.5;entryY=1;entryDx=0;entryDy=0;curved=1;dashed=1;" edge="1" parent="1" source="Aa0I2NGFZkAZ0cEA8cgW-20" target="Aa0I2NGFZkAZ0cEA8cgW-27">
          <mxGeometry relative="1" as="geometry" />
        </mxCell>
        <mxCell id="Aa0I2NGFZkAZ0cEA8cgW-20" value="Preparar Pedido" style="ellipse;whiteSpace=wrap;html=1;" parent="1" vertex="1">
          <mxGeometry x="414" y="600" width="120" height="80" as="geometry" />
        </mxCell>
        <mxCell id="Aa0I2NGFZkAZ0cEA8cgW-21" value="Retirar Pedido" style="ellipse;whiteSpace=wrap;html=1;" parent="1" vertex="1">
          <mxGeometry x="320" y="730" width="120" height="80" as="geometry" />
        </mxCell>
        <mxCell id="Aa0I2NGFZkAZ0cEA8cgW-22" value="Efetuar Pagamento" style="ellipse;whiteSpace=wrap;html=1;" parent="1" vertex="1">
          <mxGeometry x="320" y="730" width="120" height="80" as="geometry" />
        </mxCell>
        <mxCell id="AqXCSbFWqrP8IzqeoJTF-12" style="edgeStyle=orthogonalEdgeStyle;rounded=0;orthogonalLoop=1;jettySize=auto;html=1;entryX=1;entryY=0.5;entryDx=0;entryDy=0;curved=1;dashed=1;" edge="1" parent="1" source="Aa0I2NGFZkAZ0cEA8cgW-23" target="Aa0I2NGFZkAZ0cEA8cgW-20">
          <mxGeometry relative="1" as="geometry" />
        </mxCell>
        <mxCell id="Aa0I2NGFZkAZ0cEA8cgW-23" value="Receber Chamado" style="ellipse;whiteSpace=wrap;html=1;" parent="1" vertex="1">
          <mxGeometry x="320" y="730" width="120" height="80" as="geometry" />
        </mxCell>
        <mxCell id="Aa0I2NGFZkAZ0cEA8cgW-24" value="Finalizar Entrega" style="ellipse;whiteSpace=wrap;html=1;" parent="1" vertex="1">
          <mxGeometry x="460" y="800" width="120" height="80" as="geometry" />
        </mxCell>
        <mxCell id="AqXCSbFWqrP8IzqeoJTF-18" style="edgeStyle=orthogonalEdgeStyle;rounded=0;orthogonalLoop=1;jettySize=auto;html=1;entryX=0.5;entryY=1;entryDx=0;entryDy=0;curved=1;dashed=1;" edge="1" parent="1" source="Aa0I2NGFZkAZ0cEA8cgW-25" target="Aa0I2NGFZkAZ0cEA8cgW-24">
          <mxGeometry relative="1" as="geometry" />
        </mxCell>
        <mxCell id="Aa0I2NGFZkAZ0cEA8cgW-25" value="Avaliar o Serviço" style="ellipse;whiteSpace=wrap;html=1;" parent="1" vertex="1">
          <mxGeometry x="294" y="880" width="120" height="80" as="geometry" />
        </mxCell>
        <mxCell id="Aa0I2NGFZkAZ0cEA8cgW-26" value="Fazer Cadastro" style="ellipse;whiteSpace=wrap;html=1;" parent="1" vertex="1">
          <mxGeometry x="354" y="40" width="120" height="80" as="geometry" />
        </mxCell>
        <mxCell id="Aa0I2NGFZkAZ0cEA8cgW-27" value="Validar Serviço" style="ellipse;whiteSpace=wrap;html=1;" parent="1" vertex="1">
          <mxGeometry x="294" y="520" width="120" height="80" as="geometry" />
        </mxCell>
        <mxCell id="Aa0I2NGFZkAZ0cEA8cgW-52" style="edgeStyle=orthogonalEdgeStyle;rounded=0;orthogonalLoop=1;jettySize=auto;html=1;entryX=0;entryY=0.5;entryDx=0;entryDy=0;curved=1;dashed=1;" parent="1" source="Aa0I2NGFZkAZ0cEA8cgW-28" target="Aa0I2NGFZkAZ0cEA8cgW-27" edge="1">
          <mxGeometry relative="1" as="geometry" />
        </mxCell>
        <mxCell id="Aa0I2NGFZkAZ0cEA8cgW-53" value="&amp;lt;&amp;lt;Include&amp;gt;&amp;gt;" style="edgeLabel;html=1;align=center;verticalAlign=middle;resizable=0;points=[];" parent="Aa0I2NGFZkAZ0cEA8cgW-52" vertex="1" connectable="0">
          <mxGeometry x="0.4258" y="2" relative="1" as="geometry">
            <mxPoint x="158" y="-242" as="offset" />
          </mxGeometry>
        </mxCell>
        <mxCell id="Aa0I2NGFZkAZ0cEA8cgW-28" value="Efetuar Pagamento" style="ellipse;whiteSpace=wrap;html=1;" parent="1" vertex="1">
          <mxGeometry x="414" y="440" width="120" height="80" as="geometry" />
        </mxCell>
        <mxCell id="Aa0I2NGFZkAZ0cEA8cgW-36" value="" style="endArrow=none;html=1;rounded=0;entryX=0;entryY=0.5;entryDx=0;entryDy=0;" parent="1" source="Aa0I2NGFZkAZ0cEA8cgW-6" target="Aa0I2NGFZkAZ0cEA8cgW-18" edge="1">
          <mxGeometry width="50" height="50" relative="1" as="geometry">
            <mxPoint x="390" y="460" as="sourcePoint" />
            <mxPoint x="440" y="410" as="targetPoint" />
          </mxGeometry>
        </mxCell>
        <mxCell id="Aa0I2NGFZkAZ0cEA8cgW-37" value="" style="endArrow=none;html=1;rounded=0;entryX=0;entryY=0.5;entryDx=0;entryDy=0;" parent="1" target="Aa0I2NGFZkAZ0cEA8cgW-28" edge="1">
          <mxGeometry width="50" height="50" relative="1" as="geometry">
            <mxPoint x="130" y="290" as="sourcePoint" />
            <mxPoint x="440" y="410" as="targetPoint" />
            <Array as="points">
              <mxPoint x="200" y="470" />
            </Array>
          </mxGeometry>
        </mxCell>
        <mxCell id="Aa0I2NGFZkAZ0cEA8cgW-38" value="" style="endArrow=none;html=1;rounded=0;exitX=1;exitY=0.5;exitDx=0;exitDy=0;" parent="1" source="Aa0I2NGFZkAZ0cEA8cgW-27" target="Aa0I2NGFZkAZ0cEA8cgW-9" edge="1">
          <mxGeometry width="50" height="50" relative="1" as="geometry">
            <mxPoint x="390" y="460" as="sourcePoint" />
            <mxPoint x="440" y="410" as="targetPoint" />
            <Array as="points">
              <mxPoint x="720" y="510" />
            </Array>
          </mxGeometry>
        </mxCell>
        <mxCell id="Aa0I2NGFZkAZ0cEA8cgW-54" value="" style="endArrow=none;html=1;rounded=0;exitX=1;exitY=0.5;exitDx=0;exitDy=0;" parent="1" source="Aa0I2NGFZkAZ0cEA8cgW-7" target="Aa0I2NGFZkAZ0cEA8cgW-9" edge="1">
          <mxGeometry width="50" height="50" relative="1" as="geometry">
            <mxPoint x="330" y="370" as="sourcePoint" />
            <mxPoint x="380" y="320" as="targetPoint" />
          </mxGeometry>
        </mxCell>
        <mxCell id="AqXCSbFWqrP8IzqeoJTF-1" value="" style="endArrow=none;html=1;rounded=0;entryX=0;entryY=0.5;entryDx=0;entryDy=0;" edge="1" parent="1" target="Aa0I2NGFZkAZ0cEA8cgW-25">
          <mxGeometry width="50" height="50" relative="1" as="geometry">
            <mxPoint x="100" y="380" as="sourcePoint" />
            <mxPoint x="440" y="450" as="targetPoint" />
            <Array as="points">
              <mxPoint x="100" y="920" />
            </Array>
          </mxGeometry>
        </mxCell>
        <mxCell id="AqXCSbFWqrP8IzqeoJTF-2" value="" style="endArrow=none;html=1;rounded=0;exitX=1;exitY=0.5;exitDx=0;exitDy=0;" edge="1" parent="1" source="Aa0I2NGFZkAZ0cEA8cgW-23" target="Aa0I2NGFZkAZ0cEA8cgW-8">
          <mxGeometry width="50" height="50" relative="1" as="geometry">
            <mxPoint x="390" y="830" as="sourcePoint" />
            <mxPoint x="440" y="780" as="targetPoint" />
            <Array as="points">
              <mxPoint x="600" y="760" />
            </Array>
          </mxGeometry>
        </mxCell>
        <mxCell id="AqXCSbFWqrP8IzqeoJTF-4" value="" style="endArrow=none;html=1;rounded=0;exitX=1;exitY=0.5;exitDx=0;exitDy=0;" edge="1" parent="1" source="Aa0I2NGFZkAZ0cEA8cgW-24" target="Aa0I2NGFZkAZ0cEA8cgW-8">
          <mxGeometry width="50" height="50" relative="1" as="geometry">
            <mxPoint x="390" y="830" as="sourcePoint" />
            <mxPoint x="440" y="780" as="targetPoint" />
            <Array as="points">
              <mxPoint x="680" y="800" />
            </Array>
          </mxGeometry>
        </mxCell>
        <mxCell id="AqXCSbFWqrP8IzqeoJTF-6" value="&amp;lt;&amp;lt;Include&amp;gt;&amp;gt;" style="edgeLabel;html=1;align=center;verticalAlign=middle;resizable=0;points=[];" vertex="1" connectable="0" parent="1">
          <mxGeometry x="281" y="530" as="geometry" />
        </mxCell>
        <mxCell id="AqXCSbFWqrP8IzqeoJTF-8" value="&amp;lt;&amp;lt;Include&amp;gt;&amp;gt;" style="edgeLabel;html=1;align=center;verticalAlign=middle;resizable=0;points=[];" vertex="1" connectable="0" parent="1">
          <mxGeometry x="400" y="350" as="geometry">
            <mxPoint x="-16" y="-10" as="offset" />
          </mxGeometry>
        </mxCell>
        <mxCell id="AqXCSbFWqrP8IzqeoJTF-11" value="&amp;lt;&amp;lt;Extend&amp;gt;&amp;gt;" style="edgeLabel;html=1;align=center;verticalAlign=middle;resizable=0;points=[];" vertex="1" connectable="0" parent="1">
          <mxGeometry x="350" y="150" as="geometry">
            <mxPoint x="-16" y="-10" as="offset" />
          </mxGeometry>
        </mxCell>
        <mxCell id="AqXCSbFWqrP8IzqeoJTF-13" value="&amp;lt;&amp;lt;Include&amp;gt;&amp;gt;" style="edgeLabel;html=1;align=center;verticalAlign=middle;resizable=0;points=[];" vertex="1" connectable="0" parent="1">
          <mxGeometry x="534" y="710" as="geometry">
            <mxPoint x="-16" y="-10" as="offset" />
          </mxGeometry>
        </mxCell>
        <mxCell id="AqXCSbFWqrP8IzqeoJTF-15" value="&amp;lt;&amp;lt;Extend&amp;gt;&amp;gt;" style="edgeLabel;html=1;align=center;verticalAlign=middle;resizable=0;points=[];" vertex="1" connectable="0" parent="1">
          <mxGeometry x="550" y="450" as="geometry">
            <mxPoint x="-16" y="-10" as="offset" />
          </mxGeometry>
        </mxCell>
        <mxCell id="AqXCSbFWqrP8IzqeoJTF-17" value="&amp;lt;&amp;lt;Include&amp;gt;&amp;gt;" style="edgeLabel;html=1;align=center;verticalAlign=middle;resizable=0;points=[];" vertex="1" connectable="0" parent="1">
          <mxGeometry x="380" y="640" as="geometry">
            <mxPoint x="-16" y="-10" as="offset" />
          </mxGeometry>
        </mxCell>
        <mxCell id="AqXCSbFWqrP8IzqeoJTF-19" value="&amp;lt;&amp;lt;Extend&amp;gt;&amp;gt;" style="edgeLabel;html=1;align=center;verticalAlign=middle;resizable=0;points=[];" vertex="1" connectable="0" parent="1">
          <mxGeometry x="510" y="920" as="geometry">
            <mxPoint x="-16" y="-10" as="offset" />
          </mxGeometry>
        </mxCell>
        <mxCell id="AqXCSbFWqrP8IzqeoJTF-20" value="RapidEat" style="shape=umlFrame;whiteSpace=wrap;html=1;pointerEvents=0;" vertex="1" parent="1">
          <mxGeometry x="140" y="30" width="560" height="970" as="geometry" />
        </mxCell>
      </root>
    </mxGraphModel>
  </diagram>
</mxfile>
